<?xml version="1.0" encoding="UTF-8" standalone="no"?>
<!-- Created with Inkscape (http://www.inkscape.org/) -->

<svg
   version="1.1"
   id="svg4647"
   xml:space="preserve"
   width="682.66669"
   height="682.66669"
   viewBox="0 0 682.66669 682.66669"
   xmlns="http://www.w3.org/2000/svg"
   xmlns:svg="http://www.w3.org/2000/svg"><defs
     id="defs4651"><clipPath
       clipPathUnits="userSpaceOnUse"
       id="clipPath4661"><path
         d="M 0,512 H 512 V 0 H 0 Z"
         id="path4659" /></clipPath><clipPath
       clipPathUnits="userSpaceOnUse"
       id="clipPath4777"><path
         d="M 0,512 H 512 V 0 H 0 Z"
         id="path4775" /></clipPath></defs><g
     id="g4653"
     transform="matrix(1.3333333,0,0,-1.3333333,0,682.66667)"><g
       id="g4655"><g
         id="g4657"
         clip-path="url(#clipPath4661)"><g
           id="g4663"
           transform="translate(96.0259,56.1504)"><path
             d="m 0,0 h 319.949 c 58.533,46.915 96.025,118.998 96.025,199.85 0,141.384 -114.615,256 -256,256 -141.385,0 -256,-114.616 -256,-256 C -96.026,118.998 -58.534,46.915 0,0"
             style="fill:#ffe400;fill-opacity:1;fill-rule:nonzero;stroke:none"
             id="path4665" /></g><g
           id="g4667"
           transform="translate(386.0215,35.4395)"><path
             d="m 0,0 c 10.496,6.2 20.514,13.125 29.979,20.711 v 415.85 c 0,22.089 -17.911,40 -40,40 h -240 c -22.09,0 -40,-17.911 -40,-40 V 20.711 C -280.557,13.125 -270.539,6.2 -260.043,0 Z"
             style="fill:#0e62a8;fill-opacity:1;fill-rule:nonzero;stroke:none"
             id="path4669" /></g><g
           id="g4671"
           transform="translate(208.2578,35.4395)"><path
             d="m 0,0 v 436.561 c 0,22.089 17.91,40 40,40 H -72.258 c -22.09,0 -40,-17.911 -40,-40 V 20.711 C -102.791,13.122 -92.768,6.199 -82.269,0 Z"
             style="fill:#024788;fill-opacity:1;fill-rule:nonzero;stroke:none"
             id="path4673" /></g><g
           id="g4675"
           transform="translate(386,432)"><path
             d="m 0,0 c 0,5.514 -4.486,10 -10,10 h -240 c -5.514,0 -10,-4.486 -10,-10 v -396.561 c 38.105,-22.508 82.539,-35.439 130,-35.439 47.461,0 91.895,12.931 130,35.439 z"
             style="fill:#8adaf9;fill-opacity:1;fill-rule:nonzero;stroke:none"
             id="path4677" /></g><g
           id="g4679"
           transform="translate(136,442)"><path
             d="m 0,0 c -5.514,0 -10,-4.486 -10,-10 v -396.561 c 10.713,-6.328 21.926,-11.899 33.566,-16.638 l 0.104,-0.041 c 1.192,-0.486 2.39,-0.961 3.591,-1.428 0.362,-0.141 0.725,-0.277 1.087,-0.416 0.874,-0.336 1.75,-0.669 2.629,-0.995 0.536,-0.198 1.075,-0.393 1.613,-0.589 0.702,-0.255 1.404,-0.509 2.109,-0.758 0.659,-0.233 1.322,-0.462 1.984,-0.689 0.583,-0.201 1.167,-0.402 1.752,-0.598 0.757,-0.254 1.515,-0.504 2.275,-0.751 0.485,-0.158 0.971,-0.315 1.458,-0.471 0.848,-0.27 1.697,-0.536 2.549,-0.797 0.389,-0.121 0.78,-0.239 1.171,-0.357 0.939,-0.283 1.879,-0.562 2.821,-0.836 0.291,-0.084 0.583,-0.167 0.875,-0.25 1.04,-0.297 2.081,-0.589 3.126,-0.873 0.166,-0.045 0.332,-0.089 0.498,-0.134 6.259,-1.686 12.611,-3.144 19.05,-4.359 V 0 Z"
             style="fill:#2ebcf6;fill-opacity:1;fill-rule:nonzero;stroke:none"
             id="path4681" /></g><g
           id="g4683"
           transform="translate(126,160.4297)"><path
             d="m 0,0 64.64,-151.995 c 12.007,-3.165 24.36,-5.476 36.99,-6.869 L 0,80.111 Z"
             style="fill:#2ebcf6;fill-opacity:1;fill-rule:nonzero;stroke:none"
             id="path4685" /></g><g
           id="g4687"
           transform="translate(192.9146,7.8574)"><path
             d="m 0,0 c 0.464,-0.118 0.928,-0.238 1.394,-0.354 1.128,-0.279 2.26,-0.547 3.395,-0.812 0.423,-0.098 0.845,-0.2 1.27,-0.297 1.163,-0.266 2.332,-0.517 3.502,-0.766 0.405,-0.087 0.809,-0.177 1.215,-0.261 1.22,-0.254 2.443,-0.494 3.669,-0.73 0.3,-0.057 0.598,-0.119 0.898,-0.176 V 39.26 L -66.915,232.684 V 152.572 L -2.281,0.592 C -1.522,0.392 -0.762,0.193 0,0"
             style="fill:#00adf4;fill-opacity:1;fill-rule:nonzero;stroke:none"
             id="path4689" /></g><g
           id="g4691"
           transform="translate(307.957,442)"><path
             d="m 0,0 78.043,-183.513 v 80.112 L 34.069,0 Z"
             style="fill:#2ebcf6;fill-opacity:1;fill-rule:nonzero;stroke:none"
             id="path4693" /></g><g
           id="g4695"
           transform="translate(284.1406,442)"><path
             d="M 0,0 H -75.883 L 97.973,-408.809 c 1.302,0.74 2.598,1.487 3.886,2.248 v 167.045 z"
             style="fill:#2ebcf6;fill-opacity:1;fill-rule:nonzero;stroke:none"
             id="path4697" /></g><g
           id="g4699"
           transform="translate(126,324.2109)"><path
             d="m 0,0 137.825,-324.087 c 18.691,0.562 36.874,3.131 54.348,7.495 L 7.574,117.479 C 3.23,116.391 0,112.465 0,107.789 Z"
             style="fill:#2ebcf6;fill-opacity:1;fill-rule:nonzero;stroke:none"
             id="path4701" /></g><g
           id="g4703"
           transform="translate(208.2578,266.0752)"><path
             d="m 0,0 -74.684,175.614 c -4.343,-1.088 -7.574,-5.013 -7.574,-9.689 V 58.136 L 0,-135.287 Z"
             style="fill:#00adf4;fill-opacity:1;fill-rule:nonzero;stroke:none"
             id="path4705" /></g><g
           id="g4707"
           transform="translate(305.5342,402.1582)"><path
             d="m 0,0 39.836,57.528 h -65.121 l -28.651,-70.967 75.259,-54.958 -27.178,-58.893 49.588,-53.868 -23.01,54.109 38.058,57.855 z"
             style="fill:#0e62a8;fill-opacity:1;fill-rule:nonzero;stroke:none"
             id="path4709" /></g><g
           id="g4711"
           transform="translate(103.1489,156.3535)"><path
             d="M 0,0 78.17,44.534 99.383,-2.891 155.351,3.559 95.809,-28.051 63.763,-6.265 9.943,-50.316 Z"
             style="fill:#024788;fill-opacity:1;fill-rule:nonzero;stroke:none"
             id="path4713" /></g><g
           id="g4715"
           transform="translate(276,467.7451)"><path
             d="m 0,0 h -40 c -5.523,0 -10,4.477 -10,10 0,5.522 4.477,10 10,10 H 0 C 5.522,20 10,15.522 10,10 10,4.477 5.522,0 0,0"
             style="fill:#024788;fill-opacity:1;fill-rule:nonzero;stroke:none"
             id="path4717" /></g><g
           id="g4719"
           transform="translate(196,477.7451)"><path
             d="m 0,0 c 0,-5.523 -4.477,-10 -10,-10 -5.523,0 -10,4.477 -10,10 0,5.522 4.477,10 10,10 C -4.477,10 0,5.522 0,0"
             style="fill:#0e62a8;fill-opacity:1;fill-rule:nonzero;stroke:none"
             id="path4721" /></g><g
           id="g4723"
           transform="translate(336,477.7451)"><path
             d="m 0,0 c 0,-5.523 -4.478,-10 -10,-10 -5.522,0 -10,4.477 -10,10 0,5.522 4.478,10 10,10 C -4.478,10 0,5.522 0,0"
             style="fill:#024788;fill-opacity:1;fill-rule:nonzero;stroke:none"
             id="path4725" /></g><g
           id="g4727"
           transform="translate(512,100)"><path
             d="m 0,0 c 0,-55.229 -44.771,-100 -100,-100 -55.229,0 -100,44.771 -100,100 0,55.229 44.771,100 100,100 C -44.771,100 0,55.229 0,0"
             style="fill:#60b550;fill-opacity:1;fill-rule:nonzero;stroke:none"
             id="path4729" /></g><g
           id="g4731"
           transform="translate(366.4854,100)"><path
             d="M 0,0 C 0,45.784 30.77,84.381 72.757,96.242 64.097,98.689 54.959,100 45.515,100 c -55.229,0 -100,-44.771 -100,-100 0,-55.229 44.771,-100 100,-100 9.444,0 18.582,1.311 27.242,3.758 C 30.77,-84.381 0,-45.784 0,0"
             style="fill:#389f4d;fill-opacity:1;fill-rule:nonzero;stroke:none"
             id="path4733" /></g><g
           id="g4735"
           transform="translate(452.9619,72.8604)"><path
             d="m 0,0 h -18.835 v 9.04 c 0,2.273 -2.748,3.411 -4.354,1.804 L -40.63,-6.596 c -1.992,-1.993 -1.992,-5.223 0,-7.216 l 17.441,-17.44 c 1.606,-1.606 4.354,-0.469 4.354,1.805 v 9.039 H 0 l 2.977,0.716 4.858,9.488 z"
             style="fill:#e1eaf9;fill-opacity:1;fill-rule:nonzero;stroke:none"
             id="path4737" /></g><g
           id="g4739"
           transform="translate(452.9619,72.8604)"><path
             d="m 0,0 h -18.835 c 5.636,0 10.205,-4.568 10.205,-10.204 0,-5.636 -4.568,-10.204 -10.204,-10.204 H 0 l 2.977,0.716 4.858,9.488 z"
             style="fill:#c5def8;fill-opacity:1;fill-rule:nonzero;stroke:none"
             id="path4741" /></g><g
           id="g4743"
           transform="translate(461.8428,57.585)"><path
             d="m 0,0 8.789,15.256 c 1.826,3.17 1.824,7.073 -0.005,10.241 l -14.162,24.53 c -1.721,2.98 -6.185,2.392 -7.075,-0.931 -0.73,-2.722 -3.527,-4.337 -6.249,-3.608 l -0.013,0.003 c -3.323,0.889 -6.062,-2.682 -4.342,-5.661 L -5.146,8.807 C -2.328,3.926 -4,-2.315 -8.881,-5.133 -5.216,-5.133 -1.829,-3.176 0,0"
             style="fill:#e1eaf9;fill-opacity:1;fill-rule:nonzero;stroke:none"
             id="path4745" /></g><g
           id="g4747"
           transform="translate(412.0195,143.8145)"><path
             d="m 0,0 9.417,-16.312 -7.828,-4.519 c -1.968,-1.136 -1.58,-4.085 0.615,-4.673 l 23.823,-6.384 c 2.722,-0.729 5.52,0.886 6.249,3.608 l 6.384,23.823 c 0.588,2.195 -1.771,4.006 -3.74,2.87 l -7.828,-4.519 -9.417,16.31 -2.11,2.22 L 4.92,11.888 Z"
             style="fill:#e1eaf9;fill-opacity:1;fill-rule:nonzero;stroke:none"
             id="path4749" /></g><g
           id="g4751"
           transform="translate(412.0195,143.8145)"><path
             d="m 0,0 9.417,-16.312 c -2.817,4.881 -1.146,11.123 3.735,13.94 4.881,2.818 11.121,1.146 13.94,-3.734 l -9.417,16.31 -2.11,2.22 L 4.92,11.888 Z"
             style="fill:#c5def8;fill-opacity:1;fill-rule:nonzero;stroke:none"
             id="path4753" /></g><g
           id="g4755"
           transform="translate(420.8086,159.1436)"><path
             d="m 0,0 -17.607,-0.017 c -3.659,-0.004 -7.038,-1.957 -8.867,-5.125 l -14.162,-24.53 c -1.72,-2.979 1.021,-6.551 4.344,-5.661 2.722,0.729 5.52,-0.886 6.249,-3.607 l 0.004,-0.013 c 0.892,-3.322 5.353,-3.908 7.073,-0.93 l 17.912,31.024 c 2.818,4.88 9.059,6.552 13.94,3.734 C 7.053,-1.95 3.665,0.004 0,0"
             style="fill:#e1eaf9;fill-opacity:1;fill-rule:nonzero;stroke:none"
             id="path4757" /></g><g
           id="g4759"
           transform="translate(371.0479,72.8652)"><path
             d="m 0,0 9.417,16.311 7.828,-4.52 c 1.969,-1.136 4.328,0.675 3.74,2.87 l -6.383,23.823 c -0.73,2.722 -3.527,4.337 -6.249,3.608 l -23.824,-6.383 c -2.195,-0.589 -2.583,-3.537 -0.615,-4.674 l 7.828,-4.519 -9.417,-16.312 -0.868,-2.935 5.788,-8.952 z"
             style="fill:#e1eaf9;fill-opacity:1;fill-rule:nonzero;stroke:none"
             id="path4761" /></g><g
           id="g4763"
           transform="translate(371.0479,72.8652)"><path
             d="M 0,0 9.417,16.311 C 6.6,11.431 0.358,9.758 -4.522,12.576 c -4.881,2.818 -6.553,9.058 -3.736,13.939 l -9.417,-16.311 -0.868,-2.935 5.788,-8.952 z"
             style="fill:#c5def8;fill-opacity:1;fill-rule:nonzero;stroke:none"
             id="path4765" /></g><g
           id="g4767"
           transform="translate(353.3779,72.8115)"><path
             d="m 0,0 8.818,-15.239 c 1.832,-3.167 5.213,-5.116 8.871,-5.116 h 28.325 c 3.441,0 5.164,4.159 2.731,6.592 -1.993,1.992 -1.993,5.223 0,7.215 l 0.01,0.01 c 2.431,2.434 0.707,6.592 -2.733,6.592 H 10.2 C 4.563,0.054 -0.005,4.622 -0.005,10.258 -1.837,7.084 -1.836,3.173 0,0"
             style="fill:#e1eaf9;fill-opacity:1;fill-rule:nonzero;stroke:none"
             id="path4769" /></g></g></g><g
       id="g4771"><g
         id="g4773"
         clip-path="url(#clipPath4777)"><g
           id="g4779"
           transform="translate(437.0195,606.9805)"><path
             d="m 0,0 c -99.975,-99.974 -262.065,-99.974 -362.039,0 -99.974,99.975 -99.974,262.064 0,362.039 99.974,99.974 262.064,99.974 362.039,0 C 99.974,262.064 99.974,99.975 0,0"
             style="fill:#e80054;fill-opacity:1;fill-rule:nonzero;stroke:none"
             id="path4781" /></g><g
           id="g4783"
           transform="translate(437.0195,606.9805)"><path
             d="m 0,0 c -99.975,-99.974 -262.065,-99.974 -362.039,0 -99.974,99.975 -99.974,262.064 0,362.039 99.974,99.974 262.064,99.974 362.039,0 C 99.974,262.064 99.974,99.975 0,0"
             style="fill:#e80054;fill-opacity:1;fill-rule:nonzero;stroke:none"
             id="path4785" /></g></g></g></g></svg>
